# xmcd
# 
# Track frame offsets:
#     150
#     16617
#     42132
#     66327
#     89870
#     106800
#     133670
#     156057
#     170592
#     193370
#     233380
#     253227
# 
# Disc length: 3635
# 
# Revision: 1
# Processed by: cddbd v1.5.2PL0 Copyright (c) Steve Scherf et al.
# Submitted via: fre:ac v1.0.31
# 
DISCID=9f0e310c
DTITLE=Jazziz - Jazziz August 2002 Cool Summer Volume 2
DYEAR=2002
DGENRE=Jazz
TTITLE0=San Juan Nights
TTITLE1=U.B. The Monster
TTITLE2=Rendezvous
TTITLE3=The Message
TTITLE4=I Believe In You
TTITLE5=The Marquis Is Back
TTITLE6=Entruption
TTITLE7=Tabu
TTITLE8=Keepin' It Real
TTITLE9=Yemin Hashem
TTITLE10=My Dream
TTITLE11=Robbins' Nest
EXTD=YEAR: 2002
EXTT0=
EXTT1=
EXTT2=
EXTT3=
EXTT4=
EXTT5=
EXTT6=
EXTT7=
EXTT8=
EXTT9=
EXTT10=
EXTT11=
PLAYORDER=
